<?xml version="1.0" encoding="UTF-8"?>
<svg width="15px" height="19px" viewBox="0 0 15 19" version="1.1" xmlns="http://www.w3.org/2000/svg" xmlns:xlink="http://www.w3.org/1999/xlink">
    <title>Group 3 Copy 29</title>
    <defs>
        <polygon id="path-1" points="0 0 15 0 15 19 0 19"></polygon>
    </defs>
    <g id="Page-1" stroke="none" stroke-width="1" fill="none" fill-rule="evenodd">
        <g id="006_3tone_Publishing" transform="translate(-494.000000, -2989.000000)">
            <g id="Group-3-Copy-29" transform="translate(494.000000, 2989.000000)">
                <mask id="mask-2" fill="white">
                    <use xlink:href="#path-1"></use>
                </mask>
                <g id="Clip-2"></g>
                <path d="M13.8720631,0.663799008 C12.4217673,2.24541148 10.0167591,6.07318466 9.65812614,6.56097169 C9.65746931,6.56189552 3.68583692,14.4908982 3.68518008,14.4908982 C2.72225723,15.6931208 2.86577609,14.808083 2.71831621,13.9843265 C2.51206943,12.8356866 2.4723308,11.1952564 1.66376462,10.8629822 C1.45423366,10.7770652 0.501163361,10.5667379 0.170774416,11.1164221 C-0.476866736,12.19639 0.890010787,14.9472747 1.40102987,17.190356 C1.46605672,17.4742825 1.33994404,17.9620695 1.40102987,18.1181983 C1.57509164,18.5597934 2.82735113,19.159057 3.50881938,18.9610475 C3.9705757,18.8273988 4.35942313,17.7209476 4.82676256,16.8519229 C5.53319061,15.5403794 9.91297885,9.66045174 11.9416195,6.47690233 C12.6283425,5.40001393 14.3325057,3.14122743 14.8983707,1.0151658 C15.1719432,-0.0133750238 14.9138063,-0.472523037 13.8720631,0.663799008" id="Fill-1" fill="#D62329" mask="url(#mask-2)"></path>
            </g>
        </g>
    </g>
</svg>